<?xml version="1.0" encoding="UTF-8" standalone="no"?>
<!DOCTYPE svg PUBLIC "-//W3C//DTD SVG 1.1//EN"
 "http://www.w3.org/Graphics/SVG/1.1/DTD/svg11.dtd">
<!-- Generated by graphviz version 14.0.2 (20251019.1705)
 -->
<!-- Title: SoftwareEngineerPipeline Pages: 1 -->
<svg width="294pt" height="1476pt"
 viewBox="14.00 14.00 279.00 1462.00" xmlns="http://www.w3.org/2000/svg" xmlns:xlink="http://www.w3.org/1999/xlink">
<g id="graph0" class="graph" transform="scale(1 1) rotate(0) translate(18.4 1457.75)">
<title>SoftwareEngineerPipeline</title>
<polygon fill="white" stroke="none" points="-4,4 -4,-1443.35 260.82,-1443.35 260.82,4 -4,4"/>
<g id="clust1" class="cluster">
<title>cluster_legend</title>
<path fill="none" stroke="#bdbdbd" d="M158.82,-1216.2C158.82,-1216.2 236.82,-1216.2 236.82,-1216.2 242.82,-1216.2 248.82,-1222.2 248.82,-1228.2 248.82,-1228.2 248.82,-1419.35 248.82,-1419.35 248.82,-1425.35 242.82,-1431.35 236.82,-1431.35 236.82,-1431.35 158.82,-1431.35 158.82,-1431.35 152.82,-1431.35 146.82,-1425.35 146.82,-1419.35 146.82,-1419.35 146.82,-1228.2 146.82,-1228.2 146.82,-1222.2 152.82,-1216.2 158.82,-1216.2"/>
<text xml:space="preserve" text-anchor="middle" x="197.82" y="-1418.8" font-family="Helvetica,sans-Serif" font-size="9.00">Legend</text>
</g>
<!-- start -->
<g id="node1" class="node">
<title>start</title>
<ellipse fill="#4caf50" stroke="#388e3c" stroke-width="1.5" cx="81.83" cy="-1392.8" rx="55.29" ry="14.4"/>
<text xml:space="preserve" text-anchor="middle" x="81.83" y="-1389.13" font-family="Helvetica,sans-Serif" font-size="9.00" fill="white">User Requirement</text>
</g>
<!-- adaptive -->
<g id="node2" class="node">
<title>adaptive</title>
<path fill="#ffe0b2" stroke="#ff9800" stroke-width="1.5" d="M70.99,-1336.24C70.99,-1336.24 47.32,-1324.96 47.32,-1324.96 41.91,-1322.38 41.91,-1317.22 47.32,-1314.64 47.32,-1314.64 70.99,-1303.36 70.99,-1303.36 76.41,-1300.78 87.24,-1300.78 92.66,-1303.36 92.66,-1303.36 116.33,-1314.64 116.33,-1314.64 121.74,-1317.22 121.74,-1322.38 116.33,-1324.96 116.33,-1324.96 92.66,-1336.24 92.66,-1336.24 87.24,-1338.82 76.41,-1338.82 70.99,-1336.24"/>
<text xml:space="preserve" text-anchor="middle" x="81.83" y="-1321" font-family="Helvetica,sans-Serif" font-size="9.00">Adaptive</text>
<text xml:space="preserve" text-anchor="middle" x="81.83" y="-1311.25" font-family="Helvetica,sans-Serif" font-size="9.00">Analysis</text>
</g>
<!-- start&#45;&gt;adaptive -->
<g id="edge1" class="edge">
<title>start&#45;&gt;adaptive</title>
<path fill="none" stroke="#666666" d="M81.83,-1377.77C81.83,-1369.66 81.83,-1359.14 81.83,-1349.36"/>
<polygon fill="#666666" stroke="#666666" points="83.93,-1349.59 81.83,-1343.59 79.73,-1349.59 83.93,-1349.59"/>
</g>
<!-- branch -->
<g id="node3" class="node">
<title>branch</title>
<path fill="#fff3e0" stroke="#ff9800" stroke-width="1.5" d="M106.42,-1253.2C106.42,-1253.2 57.23,-1253.2 57.23,-1253.2 52.43,-1253.2 47.62,-1248.4 47.62,-1243.6 47.62,-1243.6 47.62,-1234 47.62,-1234 47.62,-1229.2 52.43,-1224.4 57.23,-1224.4 57.23,-1224.4 106.42,-1224.4 106.42,-1224.4 111.22,-1224.4 116.03,-1229.2 116.03,-1234 116.03,-1234 116.03,-1243.6 116.03,-1243.6 116.03,-1248.4 111.22,-1253.2 106.42,-1253.2"/>
<text xml:space="preserve" text-anchor="middle" x="81.83" y="-1240" font-family="Helvetica,sans-Serif" font-size="9.00">1. Branch</text>
<text xml:space="preserve" text-anchor="middle" x="81.83" y="-1230.25" font-family="Helvetica,sans-Serif" font-size="9.00">Management</text>
</g>
<!-- adaptive&#45;&gt;branch -->
<g id="edge2" class="edge">
<title>adaptive&#45;&gt;branch</title>
<path fill="none" stroke="#666666" d="M81.83,-1297.63C81.83,-1286.34 81.83,-1272.48 81.83,-1261.17"/>
<polygon fill="#666666" stroke="#666666" points="83.93,-1261.31 81.83,-1255.31 79.73,-1261.31 83.93,-1261.31"/>
<text xml:space="preserve" text-anchor="middle" x="95.33" y="-1272.6" font-family="Helvetica,sans-Serif" font-size="8.00">analyze</text>
</g>
<!-- understand -->
<g id="node4" class="node">
<title>understand</title>
<path fill="#e1bee7" stroke="#9c27b0" stroke-width="1.5" d="M108.3,-1187.4C108.3,-1187.4 55.35,-1187.4 55.35,-1187.4 50.55,-1187.4 45.75,-1182.6 45.75,-1177.8 45.75,-1177.8 45.75,-1168.2 45.75,-1168.2 45.75,-1163.4 50.55,-1158.6 55.35,-1158.6 55.35,-1158.6 108.3,-1158.6 108.3,-1158.6 113.1,-1158.6 117.9,-1163.4 117.9,-1168.2 117.9,-1168.2 117.9,-1177.8 117.9,-1177.8 117.9,-1182.6 113.1,-1187.4 108.3,-1187.4"/>
<text xml:space="preserve" text-anchor="middle" x="81.83" y="-1174.2" font-family="Helvetica,sans-Serif" font-size="9.00">2. Understand</text>
<text xml:space="preserve" text-anchor="middle" x="81.83" y="-1164.45" font-family="Helvetica,sans-Serif" font-size="9.00">Codebase</text>
</g>
<!-- branch&#45;&gt;understand -->
<g id="edge3" class="edge">
<title>branch&#45;&gt;understand</title>
<path fill="none" stroke="#666666" d="M81.83,-1223.96C81.83,-1215.51 81.83,-1204.55 81.83,-1195.05"/>
<polygon fill="#666666" stroke="#666666" points="83.93,-1195.33 81.83,-1189.33 79.73,-1195.33 83.93,-1195.33"/>
</g>
<!-- implement -->
<g id="node5" class="node">
<title>implement</title>
<path fill="#bbdefb" stroke="#1976d2" stroke-width="1.5" d="M106.05,-1121.6C106.05,-1121.6 57.6,-1121.6 57.6,-1121.6 52.8,-1121.6 48,-1116.8 48,-1112 48,-1112 48,-1102.4 48,-1102.4 48,-1097.6 52.8,-1092.8 57.6,-1092.8 57.6,-1092.8 106.05,-1092.8 106.05,-1092.8 110.85,-1092.8 115.65,-1097.6 115.65,-1102.4 115.65,-1102.4 115.65,-1112 115.65,-1112 115.65,-1116.8 110.85,-1121.6 106.05,-1121.6"/>
<text xml:space="preserve" text-anchor="middle" x="81.83" y="-1108.4" font-family="Helvetica,sans-Serif" font-size="9.00">3. Implement</text>
<text xml:space="preserve" text-anchor="middle" x="81.83" y="-1098.65" font-family="Helvetica,sans-Serif" font-size="9.00">Requirement</text>
</g>
<!-- understand&#45;&gt;implement -->
<g id="edge4" class="edge">
<title>understand&#45;&gt;implement</title>
<path fill="none" stroke="#666666" d="M81.83,-1158.16C81.83,-1149.71 81.83,-1138.75 81.83,-1129.25"/>
<polygon fill="#666666" stroke="#666666" points="83.93,-1129.53 81.83,-1123.53 79.73,-1129.53 83.93,-1129.53"/>
</g>
<!-- simplify_check -->
<g id="node6" class="node">
<title>simplify_check</title>
<path fill="#c8e6c9" stroke="#4caf50" stroke-width="1.5" d="M71.86,-1051.6C71.86,-1051.6 61.89,-1047.4 61.89,-1047.4 56.9,-1045.3 56.9,-1041.1 61.89,-1039 61.89,-1039 71.86,-1034.8 71.86,-1034.8 76.84,-1032.7 86.81,-1032.7 91.79,-1034.8 91.79,-1034.8 101.76,-1039 101.76,-1039 106.75,-1041.1 106.75,-1045.3 101.76,-1047.4 101.76,-1047.4 91.79,-1051.6 91.79,-1051.6 86.81,-1053.7 76.84,-1053.7 71.86,-1051.6"/>
<text xml:space="preserve" text-anchor="middle" x="81.83" y="-1040.1" font-family="Helvetica,sans-Serif" font-size="8.00">skip?</text>
</g>
<!-- implement&#45;&gt;simplify_check -->
<g id="edge5" class="edge">
<title>implement&#45;&gt;simplify_check</title>
<path fill="none" stroke="#666666" d="M81.83,-1092.13C81.83,-1083.76 81.83,-1073.01 81.83,-1063.81"/>
<polygon fill="#666666" stroke="#666666" points="83.93,-1064.05 81.83,-1058.05 79.73,-1064.05 83.93,-1064.05"/>
</g>
<!-- simplify -->
<g id="node7" class="node">
<title>simplify</title>
<path fill="#c8e6c9" stroke="#4caf50" stroke-width="1.5" d="M57.43,-985.6C57.43,-985.6 20.22,-985.6 20.22,-985.6 15.42,-985.6 10.63,-980.8 10.63,-976 10.63,-976 10.63,-966.4 10.63,-966.4 10.63,-961.6 15.42,-956.8 20.22,-956.8 20.22,-956.8 57.43,-956.8 57.43,-956.8 62.23,-956.8 67.03,-961.6 67.03,-966.4 67.03,-966.4 67.03,-976 67.03,-976 67.03,-980.8 62.23,-985.6 57.43,-985.6"/>
<text xml:space="preserve" text-anchor="middle" x="38.83" y="-972.4" font-family="Helvetica,sans-Serif" font-size="9.00">4. Simplify</text>
<text xml:space="preserve" text-anchor="middle" x="38.83" y="-962.65" font-family="Helvetica,sans-Serif" font-size="9.00">Code</text>
</g>
<!-- simplify_check&#45;&gt;simplify -->
<g id="edge6" class="edge">
<title>simplify_check&#45;&gt;simplify</title>
<path fill="none" stroke="#666666" d="M75.85,-1032.47C69.5,-1022.14 59.29,-1005.52 51.2,-992.34"/>
<polygon fill="#666666" stroke="#666666" points="53.15,-991.5 48.22,-987.49 49.57,-993.7 53.15,-991.5"/>
<text xml:space="preserve" text-anchor="middle" x="67.4" y="-1005" font-family="Helvetica,sans-Serif" font-size="8.00">no</text>
</g>
<!-- j1 -->
<g id="node19" class="node">
<title>j1</title>
<ellipse fill="#e3f2fd" stroke="#1976d2" stroke-width="1.5" cx="81.83" cy="-918" rx="1.8" ry="1.8"/>
</g>
<!-- simplify_check&#45;&gt;j1 -->
<g id="edge7" class="edge">
<title>simplify_check&#45;&gt;j1</title>
<path fill="none" stroke="#666666" d="M82.51,-1030.34C84.09,-1003.18 87.83,-938.8 87.83,-938.8 87.83,-938.8 87.83,-937.8 87.83,-937.8 87.83,-937.8 86.14,-932.51 84.55,-927.54"/>
<polygon fill="#666666" stroke="#666666" points="86.58,-926.99 82.76,-921.92 82.58,-928.27 86.58,-926.99"/>
<text xml:space="preserve" text-anchor="middle" x="92.77" y="-968.1" font-family="Helvetica,sans-Serif" font-size="8.00">yes</text>
</g>
<!-- simplify&#45;&gt;j1 -->
<g id="edge8" class="edge">
<title>simplify&#45;&gt;j1</title>
<path fill="none" stroke="#666666" d="M50.57,-956.21C58.95,-946.24 69.83,-933.28 76.3,-925.58"/>
<polygon fill="#666666" stroke="#666666" points="77.57,-927.33 79.82,-921.39 74.35,-924.63 77.57,-927.33"/>
</g>
<!-- review_check -->
<g id="node8" class="node">
<title>review_check</title>
<path fill="#fff9c4" stroke="#fbc02d" stroke-width="1.5" d="M71.86,-875C71.86,-875 61.89,-870.8 61.89,-870.8 56.9,-868.7 56.9,-864.5 61.89,-862.4 61.89,-862.4 71.86,-858.2 71.86,-858.2 76.84,-856.1 86.81,-856.1 91.79,-858.2 91.79,-858.2 101.76,-862.4 101.76,-862.4 106.75,-864.5 106.75,-868.7 101.76,-870.8 101.76,-870.8 91.79,-875 91.79,-875 86.81,-877.1 76.84,-877.1 71.86,-875"/>
<text xml:space="preserve" text-anchor="middle" x="81.83" y="-863.5" font-family="Helvetica,sans-Serif" font-size="8.00">skip?</text>
</g>
<!-- review -->
<g id="node9" class="node">
<title>review</title>
<path fill="#fff9c4" stroke="#fbc02d" stroke-width="1.5" d="M70.05,-809C70.05,-809 9.6,-809 9.6,-809 4.8,-809 0,-804.2 0,-799.4 0,-799.4 0,-789.8 0,-789.8 0,-785 4.8,-780.2 9.6,-780.2 9.6,-780.2 70.05,-780.2 70.05,-780.2 74.85,-780.2 79.65,-785 79.65,-789.8 79.65,-789.8 79.65,-799.4 79.65,-799.4 79.65,-804.2 74.85,-809 70.05,-809"/>
<text xml:space="preserve" text-anchor="middle" x="39.83" y="-795.8" font-family="Helvetica,sans-Serif" font-size="9.00">5. Code Review</text>
<text xml:space="preserve" text-anchor="middle" x="39.83" y="-786.05" font-family="Helvetica,sans-Serif" font-size="9.00">(iterative)</text>
</g>
<!-- review_check&#45;&gt;review -->
<g id="edge10" class="edge">
<title>review_check&#45;&gt;review</title>
<path fill="none" stroke="#666666" d="M75.99,-855.87C69.79,-845.54 59.81,-828.92 51.91,-815.74"/>
<polygon fill="#666666" stroke="#666666" points="53.89,-814.96 49,-810.9 50.29,-817.12 53.89,-814.96"/>
<text xml:space="preserve" text-anchor="middle" x="67.84" y="-828.4" font-family="Helvetica,sans-Serif" font-size="8.00">no</text>
</g>
<!-- j2 -->
<g id="node20" class="node">
<title>j2</title>
<ellipse fill="#e3f2fd" stroke="#1976d2" stroke-width="1.5" cx="82.83" cy="-663.2" rx="1.8" ry="1.8"/>
</g>
<!-- review_check&#45;&gt;j2 -->
<g id="edge11" class="edge">
<title>review_check&#45;&gt;j2</title>
<path fill="none" stroke="#666666" d="M84.2,-854.42C87.69,-837.92 93.83,-809 93.83,-809 93.83,-809 93.83,-710 93.83,-710 93.83,-710 87.98,-685.64 84.81,-672.45"/>
<polygon fill="#666666" stroke="#666666" points="86.89,-672.15 83.45,-666.8 82.81,-673.13 86.89,-672.15"/>
<text xml:space="preserve" text-anchor="middle" x="99.83" y="-754.6" font-family="Helvetica,sans-Serif" font-size="8.00">yes</text>
</g>
<!-- issues -->
<g id="node10" class="node">
<title>issues</title>
<path fill="#fff9c4" stroke="#fbc02d" stroke-width="1.5" d="M30.45,-731.38C30.45,-731.38 15.68,-726.42 15.68,-726.42 9.99,-724.51 9.99,-720.69 15.68,-718.78 15.68,-718.78 30.45,-713.82 30.45,-713.82 36.14,-711.91 47.51,-711.91 53.2,-713.82 53.2,-713.82 67.97,-718.78 67.97,-718.78 73.66,-720.69 73.66,-724.51 67.97,-726.42 67.97,-726.42 53.2,-731.38 53.2,-731.38 47.51,-733.29 36.14,-733.29 30.45,-731.38"/>
<text xml:space="preserve" text-anchor="middle" x="41.83" y="-719.5" font-family="Helvetica,sans-Serif" font-size="8.00">issues?</text>
</g>
<!-- review&#45;&gt;issues -->
<g id="edge12" class="edge">
<title>review&#45;&gt;issues</title>
<path fill="none" stroke="#666666" d="M35.41,-779.74C32.73,-771.32 29.83,-762.2 29.83,-762.2 29.83,-762.2 29.83,-753.2 29.83,-753.2 29.83,-753.2 32.11,-747.57 34.68,-741.22"/>
<polygon fill="#666666" stroke="#666666" points="36.62,-742.04 36.92,-735.69 32.72,-740.46 36.62,-742.04"/>
</g>
<!-- issues&#45;&gt;review -->
<g id="edge13" class="edge">
<title>issues&#45;&gt;review</title>
<path fill="none" stroke="#666666" d="M41.48,-735.54C41.2,-745.59 40.78,-760.23 40.43,-772.29"/>
<polygon fill="#666666" stroke="#666666" points="38.34,-772.2 40.26,-778.26 42.53,-772.32 38.34,-772.2"/>
<text xml:space="preserve" text-anchor="middle" x="46.94" y="-754.6" font-family="Helvetica,sans-Serif" font-size="8.00">yes</text>
</g>
<!-- issues&#45;&gt;j2 -->
<g id="edge14" class="edge">
<title>issues&#45;&gt;j2</title>
<path fill="none" stroke="#666666" d="M48.78,-711.86C57.06,-700.27 70.68,-681.2 77.93,-671.05"/>
<polygon fill="#666666" stroke="#666666" points="79.6,-672.32 81.38,-666.22 76.19,-669.88 79.6,-672.32"/>
<text xml:space="preserve" text-anchor="middle" x="72.89" y="-684.4" font-family="Helvetica,sans-Serif" font-size="8.00">no</text>
</g>
<!-- solid_check -->
<g id="node11" class="node">
<title>solid_check</title>
<path fill="#f8bbd9" stroke="#e91e63" stroke-width="1.5" d="M72.86,-620.2C72.86,-620.2 62.89,-616 62.89,-616 57.9,-613.9 57.9,-609.7 62.89,-607.6 62.89,-607.6 72.86,-603.4 72.86,-603.4 77.84,-601.3 87.81,-601.3 92.79,-603.4 92.79,-603.4 102.76,-607.6 102.76,-607.6 107.75,-609.7 107.75,-613.9 102.76,-616 102.76,-616 92.79,-620.2 92.79,-620.2 87.81,-622.3 77.84,-622.3 72.86,-620.2"/>
<text xml:space="preserve" text-anchor="middle" x="82.83" y="-608.7" font-family="Helvetica,sans-Serif" font-size="8.00">skip?</text>
</g>
<!-- solid -->
<g id="node12" class="node">
<title>solid</title>
<path fill="#f8bbd9" stroke="#e91e63" stroke-width="1.5" d="M58.23,-554.2C58.23,-554.2 23.42,-554.2 23.42,-554.2 18.62,-554.2 13.83,-549.4 13.83,-544.6 13.83,-544.6 13.83,-535 13.83,-535 13.83,-530.2 18.62,-525.4 23.42,-525.4 23.42,-525.4 58.23,-525.4 58.23,-525.4 63.03,-525.4 67.83,-530.2 67.83,-535 67.83,-535 67.83,-544.6 67.83,-544.6 67.83,-549.4 63.03,-554.2 58.23,-554.2"/>
<text xml:space="preserve" text-anchor="middle" x="40.83" y="-541" font-family="Helvetica,sans-Serif" font-size="9.00">6. SOLID</text>
<text xml:space="preserve" text-anchor="middle" x="40.83" y="-531.25" font-family="Helvetica,sans-Serif" font-size="9.00">Review</text>
</g>
<!-- solid_check&#45;&gt;solid -->
<g id="edge16" class="edge">
<title>solid_check&#45;&gt;solid</title>
<path fill="none" stroke="#666666" d="M76.99,-601.07C70.79,-590.74 60.81,-574.12 52.91,-560.94"/>
<polygon fill="#666666" stroke="#666666" points="54.89,-560.16 50,-556.1 51.29,-562.32 54.89,-560.16"/>
<text xml:space="preserve" text-anchor="middle" x="68.84" y="-573.6" font-family="Helvetica,sans-Serif" font-size="8.00">no</text>
</g>
<!-- j3 -->
<g id="node21" class="node">
<title>j3</title>
<ellipse fill="#e3f2fd" stroke="#1976d2" stroke-width="1.5" cx="82.83" cy="-486.6" rx="1.8" ry="1.8"/>
</g>
<!-- solid_check&#45;&gt;j3 -->
<g id="edge17" class="edge">
<title>solid_check&#45;&gt;j3</title>
<path fill="none" stroke="#666666" d="M83.51,-598.94C85.09,-571.78 88.83,-507.4 88.83,-507.4 88.83,-507.4 88.83,-506.4 88.83,-506.4 88.83,-506.4 87.14,-501.11 85.55,-496.14"/>
<polygon fill="#666666" stroke="#666666" points="87.58,-495.59 83.76,-490.52 83.58,-496.87 87.58,-495.59"/>
<text xml:space="preserve" text-anchor="middle" x="93.77" y="-536.7" font-family="Helvetica,sans-Serif" font-size="8.00">yes</text>
</g>
<!-- solid&#45;&gt;j3 -->
<g id="edge18" class="edge">
<title>solid&#45;&gt;j3</title>
<path fill="none" stroke="#666666" d="M52.3,-524.81C60.48,-514.84 71.11,-501.88 77.43,-494.18"/>
<polygon fill="#666666" stroke="#666666" points="78.68,-495.97 80.86,-490 75.43,-493.3 78.68,-495.97"/>
</g>
<!-- test_check -->
<g id="node13" class="node">
<title>test_check</title>
<path fill="#b2ebf2" stroke="#00bcd4" stroke-width="1.5" d="M72.86,-443.6C72.86,-443.6 62.89,-439.4 62.89,-439.4 57.9,-437.3 57.9,-433.1 62.89,-431 62.89,-431 72.86,-426.8 72.86,-426.8 77.84,-424.7 87.81,-424.7 92.79,-426.8 92.79,-426.8 102.76,-431 102.76,-431 107.75,-433.1 107.75,-437.3 102.76,-439.4 102.76,-439.4 92.79,-443.6 92.79,-443.6 87.81,-445.7 77.84,-445.7 72.86,-443.6"/>
<text xml:space="preserve" text-anchor="middle" x="82.83" y="-432.1" font-family="Helvetica,sans-Serif" font-size="8.00">skip?</text>
</g>
<!-- test -->
<g id="node14" class="node">
<title>test</title>
<path fill="#b2ebf2" stroke="#00bcd4" stroke-width="1.5" d="M58.23,-377.6C58.23,-377.6 23.42,-377.6 23.42,-377.6 18.62,-377.6 13.83,-372.8 13.83,-368 13.83,-368 13.83,-358.4 13.83,-358.4 13.83,-353.6 18.62,-348.8 23.42,-348.8 23.42,-348.8 58.23,-348.8 58.23,-348.8 63.03,-348.8 67.83,-353.6 67.83,-358.4 67.83,-358.4 67.83,-368 67.83,-368 67.83,-372.8 63.03,-377.6 58.23,-377.6"/>
<text xml:space="preserve" text-anchor="middle" x="40.83" y="-364.4" font-family="Helvetica,sans-Serif" font-size="9.00">7. Run</text>
<text xml:space="preserve" text-anchor="middle" x="40.83" y="-354.65" font-family="Helvetica,sans-Serif" font-size="9.00">Tests</text>
</g>
<!-- test_check&#45;&gt;test -->
<g id="edge20" class="edge">
<title>test_check&#45;&gt;test</title>
<path fill="none" stroke="#666666" d="M76.99,-424.47C70.79,-414.14 60.81,-397.52 52.91,-384.34"/>
<polygon fill="#666666" stroke="#666666" points="54.89,-383.56 50,-379.5 51.29,-385.72 54.89,-383.56"/>
<text xml:space="preserve" text-anchor="middle" x="68.84" y="-397" font-family="Helvetica,sans-Serif" font-size="8.00">no</text>
</g>
<!-- j4 -->
<g id="node22" class="node">
<title>j4</title>
<ellipse fill="#e3f2fd" stroke="#1976d2" stroke-width="1.5" cx="82.83" cy="-310" rx="1.8" ry="1.8"/>
</g>
<!-- test_check&#45;&gt;j4 -->
<g id="edge21" class="edge">
<title>test_check&#45;&gt;j4</title>
<path fill="none" stroke="#666666" d="M83.51,-422.34C85.09,-395.18 88.83,-330.8 88.83,-330.8 88.83,-330.8 88.83,-329.8 88.83,-329.8 88.83,-329.8 87.14,-324.51 85.55,-319.54"/>
<polygon fill="#666666" stroke="#666666" points="87.58,-318.99 83.76,-313.92 83.58,-320.27 87.58,-318.99"/>
<text xml:space="preserve" text-anchor="middle" x="93.77" y="-360.1" font-family="Helvetica,sans-Serif" font-size="8.00">yes</text>
</g>
<!-- test&#45;&gt;j4 -->
<g id="edge22" class="edge">
<title>test&#45;&gt;j4</title>
<path fill="none" stroke="#666666" d="M52.3,-348.21C60.48,-338.24 71.11,-325.28 77.43,-317.58"/>
<polygon fill="#666666" stroke="#666666" points="78.68,-319.37 80.86,-313.4 75.43,-316.7 78.68,-319.37"/>
</g>
<!-- commit -->
<g id="node15" class="node">
<title>commit</title>
<path fill="#d1c4e9" stroke="#673ab7" stroke-width="1.5" d="M101.05,-271.2C101.05,-271.2 64.6,-271.2 64.6,-271.2 59.8,-271.2 55,-266.4 55,-261.6 55,-261.6 55,-252 55,-252 55,-247.2 59.8,-242.4 64.6,-242.4 64.6,-242.4 101.05,-242.4 101.05,-242.4 105.85,-242.4 110.65,-247.2 110.65,-252 110.65,-252 110.65,-261.6 110.65,-261.6 110.65,-266.4 105.85,-271.2 101.05,-271.2"/>
<text xml:space="preserve" text-anchor="middle" x="82.83" y="-258" font-family="Helvetica,sans-Serif" font-size="9.00">8. Commit</text>
<text xml:space="preserve" text-anchor="middle" x="82.83" y="-248.25" font-family="Helvetica,sans-Serif" font-size="9.00">Changes</text>
</g>
<!-- changelog_check -->
<g id="node16" class="node">
<title>changelog_check</title>
<path fill="#d7ccc8" stroke="#795548" stroke-width="1.5" d="M72.86,-201.2C72.86,-201.2 62.89,-197 62.89,-197 57.9,-194.9 57.9,-190.7 62.89,-188.6 62.89,-188.6 72.86,-184.4 72.86,-184.4 77.84,-182.3 87.81,-182.3 92.79,-184.4 92.79,-184.4 102.76,-188.6 102.76,-188.6 107.75,-190.7 107.75,-194.9 102.76,-197 102.76,-197 92.79,-201.2 92.79,-201.2 87.81,-203.3 77.84,-203.3 72.86,-201.2"/>
<text xml:space="preserve" text-anchor="middle" x="82.83" y="-189.7" font-family="Helvetica,sans-Serif" font-size="8.00">skip?</text>
</g>
<!-- commit&#45;&gt;changelog_check -->
<g id="edge24" class="edge">
<title>commit&#45;&gt;changelog_check</title>
<path fill="none" stroke="#666666" d="M82.83,-241.73C82.83,-233.36 82.83,-222.61 82.83,-213.41"/>
<polygon fill="#666666" stroke="#666666" points="84.93,-213.65 82.83,-207.65 80.73,-213.65 84.93,-213.65"/>
</g>
<!-- changelog -->
<g id="node17" class="node">
<title>changelog</title>
<path fill="#d7ccc8" stroke="#795548" stroke-width="1.5" d="M59.3,-135.2C59.3,-135.2 18.35,-135.2 18.35,-135.2 13.55,-135.2 8.75,-130.4 8.75,-125.6 8.75,-125.6 8.75,-116 8.75,-116 8.75,-111.2 13.55,-106.4 18.35,-106.4 18.35,-106.4 59.3,-106.4 59.3,-106.4 64.1,-106.4 68.9,-111.2 68.9,-116 68.9,-116 68.9,-125.6 68.9,-125.6 68.9,-130.4 64.1,-135.2 59.3,-135.2"/>
<text xml:space="preserve" text-anchor="middle" x="38.83" y="-122" font-family="Helvetica,sans-Serif" font-size="9.00">9. Update</text>
<text xml:space="preserve" text-anchor="middle" x="38.83" y="-112.25" font-family="Helvetica,sans-Serif" font-size="9.00">Changelog</text>
</g>
<!-- changelog_check&#45;&gt;changelog -->
<g id="edge25" class="edge">
<title>changelog_check&#45;&gt;changelog</title>
<path fill="none" stroke="#666666" d="M76.71,-182.07C70.21,-171.74 59.77,-155.12 51.49,-141.94"/>
<polygon fill="#666666" stroke="#666666" points="53.4,-141.04 48.43,-137.08 49.84,-143.28 53.4,-141.04"/>
<text xml:space="preserve" text-anchor="middle" x="67.96" y="-154.6" font-family="Helvetica,sans-Serif" font-size="8.00">no</text>
</g>
<!-- j5 -->
<g id="node23" class="node">
<title>j5</title>
<ellipse fill="#e3f2fd" stroke="#1976d2" stroke-width="1.5" cx="82.83" cy="-67.6" rx="1.8" ry="1.8"/>
</g>
<!-- changelog_check&#45;&gt;j5 -->
<g id="edge26" class="edge">
<title>changelog_check&#45;&gt;j5</title>
<path fill="none" stroke="#666666" d="M83.4,-179.94C84.71,-152.78 87.83,-88.4 87.83,-88.4 87.83,-88.4 87.83,-87.4 87.83,-87.4 87.83,-87.4 86.42,-82.11 85.1,-77.14"/>
<polygon fill="#666666" stroke="#666666" points="87.18,-76.8 83.61,-71.54 83.12,-77.88 87.18,-76.8"/>
<text xml:space="preserve" text-anchor="middle" x="92.95" y="-117.7" font-family="Helvetica,sans-Serif" font-size="8.00">yes</text>
</g>
<!-- changelog&#45;&gt;j5 -->
<g id="edge27" class="edge">
<title>changelog&#45;&gt;j5</title>
<path fill="none" stroke="#666666" d="M50.85,-105.81C59.42,-95.84 70.55,-82.88 77.17,-75.18"/>
<polygon fill="#666666" stroke="#666666" points="78.47,-76.89 80.78,-70.98 75.28,-74.16 78.47,-76.89"/>
</g>
<!-- complete -->
<g id="node18" class="node">
<title>complete</title>
<ellipse fill="#4caf50" stroke="#388e3c" stroke-width="1.5" cx="82.83" cy="-14.4" rx="33.49" ry="14.4"/>
<text xml:space="preserve" text-anchor="middle" x="82.83" y="-10.72" font-family="Helvetica,sans-Serif" font-size="9.00" fill="white">Complete</text>
</g>
<!-- j1&#45;&gt;review_check -->
<g id="edge9" class="edge">
<title>j1&#45;&gt;review_check</title>
<path fill="none" stroke="#666666" d="M81.83,-915.78C81.83,-911.78 81.83,-898.68 81.83,-887.15"/>
<polygon fill="#666666" stroke="#666666" points="83.93,-887.42 81.83,-881.42 79.73,-887.42 83.93,-887.42"/>
</g>
<!-- j2&#45;&gt;solid_check -->
<g id="edge15" class="edge">
<title>j2&#45;&gt;solid_check</title>
<path fill="none" stroke="#666666" d="M82.83,-660.98C82.83,-656.98 82.83,-643.88 82.83,-632.35"/>
<polygon fill="#666666" stroke="#666666" points="84.93,-632.62 82.83,-626.62 80.73,-632.62 84.93,-632.62"/>
</g>
<!-- j3&#45;&gt;test_check -->
<g id="edge19" class="edge">
<title>j3&#45;&gt;test_check</title>
<path fill="none" stroke="#666666" d="M82.83,-484.38C82.83,-480.38 82.83,-467.28 82.83,-455.75"/>
<polygon fill="#666666" stroke="#666666" points="84.93,-456.02 82.83,-450.02 80.73,-456.02 84.93,-456.02"/>
</g>
<!-- j4&#45;&gt;commit -->
<g id="edge23" class="edge">
<title>j4&#45;&gt;commit</title>
<path fill="none" stroke="#666666" d="M82.83,-307.73C82.83,-303.69 82.83,-290.67 82.83,-278.94"/>
<polygon fill="#666666" stroke="#666666" points="84.93,-279.03 82.83,-273.03 80.73,-279.03 84.93,-279.03"/>
</g>
<!-- j5&#45;&gt;complete -->
<g id="edge28" class="edge">
<title>j5&#45;&gt;complete</title>
<path fill="none" stroke="#666666" d="M82.83,-65.33C82.83,-61.29 82.83,-48.27 82.83,-36.54"/>
<polygon fill="#666666" stroke="#666666" points="84.93,-36.63 82.83,-30.63 80.73,-36.63 84.93,-36.63"/>
</g>
<!-- leg1 -->
<g id="node24" class="node">
<title>leg1</title>
<path fill="#bbdefb" stroke="#1976d2" stroke-width="1.5" d="M217.63,-1403.6C217.63,-1403.6 178.02,-1403.6 178.02,-1403.6 174.42,-1403.6 170.82,-1400 170.82,-1396.4 170.82,-1396.4 170.82,-1389.2 170.82,-1389.2 170.82,-1385.6 174.42,-1382 178.02,-1382 178.02,-1382 217.63,-1382 217.63,-1382 221.22,-1382 224.82,-1385.6 224.82,-1389.2 224.82,-1389.2 224.82,-1396.4 224.82,-1396.4 224.82,-1400 221.22,-1403.6 217.63,-1403.6"/>
<text xml:space="preserve" text-anchor="middle" x="197.82" y="-1389.7" font-family="Helvetica,sans-Serif" font-size="8.00">Required</text>
</g>
<!-- leg2 -->
<g id="node25" class="node">
<title>leg2</title>
<path fill="#c8e6c9" stroke="#4caf50" stroke-width="1.5" d="M217.63,-1330.6C217.63,-1330.6 178.02,-1330.6 178.02,-1330.6 174.42,-1330.6 170.82,-1327 170.82,-1323.4 170.82,-1323.4 170.82,-1316.2 170.82,-1316.2 170.82,-1312.6 174.42,-1309 178.02,-1309 178.02,-1309 217.63,-1309 217.63,-1309 221.22,-1309 224.82,-1312.6 224.82,-1316.2 224.82,-1316.2 224.82,-1323.4 224.82,-1323.4 224.82,-1327 221.22,-1330.6 217.63,-1330.6"/>
<text xml:space="preserve" text-anchor="middle" x="197.82" y="-1316.7" font-family="Helvetica,sans-Serif" font-size="8.00">Skippable</text>
</g>
<!-- leg1&#45;&gt;leg2 -->
<!-- leg3 -->
<g id="node26" class="node">
<title>leg3</title>
<path fill="#ffe082" stroke="#ffc107" stroke-width="1.5" d="M186.35,-1247.87C186.35,-1247.87 168.31,-1242.33 168.31,-1242.33 162.57,-1240.56 162.57,-1237.04 168.31,-1235.27 168.31,-1235.27 186.35,-1229.73 186.35,-1229.73 192.09,-1227.96 203.56,-1227.96 209.3,-1229.73 209.3,-1229.73 227.34,-1235.27 227.34,-1235.27 233.08,-1237.04 233.08,-1240.56 227.34,-1242.33 227.34,-1242.33 209.3,-1247.87 209.3,-1247.87 203.56,-1249.64 192.09,-1249.64 186.35,-1247.87"/>
<text xml:space="preserve" text-anchor="middle" x="197.82" y="-1235.7" font-family="Helvetica,sans-Serif" font-size="8.00">Decision</text>
</g>
<!-- leg2&#45;&gt;leg3 -->
</g>
</svg>
