<?xml version="1.0" encoding="UTF-8" standalone="no"?>
<!DOCTYPE svg PUBLIC "-//W3C//DTD SVG 1.1//EN"
 "http://www.w3.org/Graphics/SVG/1.1/DTD/svg11.dtd">
<!-- Generated by graphviz version 14.0.2 (20251019.1705)
 -->
<!-- Title: SoftwareEngineerPipeline Pages: 1 -->
<svg width="723pt" height="3719pt"
 viewBox="0.00 0.00 723.00 3719.00" xmlns="http://www.w3.org/2000/svg" xmlns:xlink="http://www.w3.org/1999/xlink">
<g id="graph0" class="graph" transform="scale(1 1) rotate(0) translate(4 3714.63)">
<title>SoftwareEngineerPipeline</title>
<polygon fill="white" stroke="none" points="-4,4 -4,-3714.63 719,-3714.63 719,4 -4,4"/>
<g id="clust1" class="cluster">
<title>cluster_branch</title>
<path fill="#fff3e0" stroke="#ff9800" d="M20,-2787C20,-2787 527,-2787 527,-2787 533,-2787 539,-2793 539,-2799 539,-2799 539,-3576.25 539,-3576.25 539,-3582.25 533,-3588.25 527,-3588.25 527,-3588.25 20,-3588.25 20,-3588.25 14,-3588.25 8,-3582.25 8,-3576.25 8,-3576.25 8,-2799 8,-2799 8,-2793 14,-2787 20,-2787"/>
<text xml:space="preserve" text-anchor="middle" x="273.5" y="-3571.9" font-family="Helvetica,sans-Serif" font-size="13.00" fill="#e65100">Step 1: Smart Branch Management</text>
</g>
<g id="clust2" class="cluster">
<title>cluster_simplify</title>
<path fill="#e8f5e9" stroke="#4caf50" d="M184,-2128.25C184,-2128.25 354,-2128.25 354,-2128.25 360,-2128.25 366,-2134.25 366,-2140.25 366,-2140.25 366,-2382 366,-2382 366,-2388 360,-2394 354,-2394 354,-2394 184,-2394 184,-2394 178,-2394 172,-2388 172,-2382 172,-2382 172,-2140.25 172,-2140.25 172,-2134.25 178,-2128.25 184,-2128.25"/>
<text xml:space="preserve" text-anchor="middle" x="269" y="-2377.65" font-family="Helvetica,sans-Serif" font-size="13.00" fill="#2e7d32">Step 4: Code Simplification</text>
</g>
<g id="clust3" class="cluster">
<title>cluster_review</title>
<path fill="#fff8e1" stroke="#ffc107" d="M66,-1426.75C66,-1426.75 335,-1426.75 335,-1426.75 341,-1426.75 347,-1432.75 347,-1438.75 347,-1438.75 347,-2079.25 347,-2079.25 347,-2085.25 341,-2091.25 335,-2091.25 335,-2091.25 66,-2091.25 66,-2091.25 60,-2091.25 54,-2085.25 54,-2079.25 54,-2079.25 54,-1438.75 54,-1438.75 54,-1432.75 60,-1426.75 66,-1426.75"/>
<text xml:space="preserve" text-anchor="middle" x="200.5" y="-2074.9" font-family="Helvetica,sans-Serif" font-size="13.00" fill="#f57f17">Step 5: Code Review (Iterative)</text>
</g>
<g id="clust4" class="cluster">
<title>cluster_solid</title>
<path fill="#fce4ec" stroke="#e91e63" d="M267,-1076.75C267,-1076.75 437,-1076.75 437,-1076.75 443,-1076.75 449,-1082.75 449,-1088.75 449,-1088.75 449,-1367.5 449,-1367.5 449,-1373.5 443,-1379.5 437,-1379.5 437,-1379.5 267,-1379.5 267,-1379.5 261,-1379.5 255,-1373.5 255,-1367.5 255,-1367.5 255,-1088.75 255,-1088.75 255,-1082.75 261,-1076.75 267,-1076.75"/>
<text xml:space="preserve" text-anchor="middle" x="352" y="-1363.15" font-family="Helvetica,sans-Serif" font-size="13.00" fill="#ad1457">Step 6: SOLID &amp; Clean Code</text>
</g>
<g id="clust5" class="cluster">
<title>cluster_test</title>
<path fill="#e0f7fa" stroke="#00bcd4" d="M220,-774C220,-774 476,-774 476,-774 482,-774 488,-780 488,-786 488,-786 488,-1027.75 488,-1027.75 488,-1033.75 482,-1039.75 476,-1039.75 476,-1039.75 220,-1039.75 220,-1039.75 214,-1039.75 208,-1033.75 208,-1027.75 208,-1027.75 208,-786 208,-786 208,-780 214,-774 220,-774"/>
<text xml:space="preserve" text-anchor="middle" x="348" y="-1023.4" font-family="Helvetica,sans-Serif" font-size="13.00" fill="#00838f">Step 7: Testing</text>
</g>
<g id="clust6" class="cluster">
<title>cluster_changelog</title>
<path fill="#efebe9" stroke="#795548" d="M50,-101C50,-101 228,-101 228,-101 234,-101 240,-107 240,-113 240,-113 240,-330.75 240,-330.75 240,-336.75 234,-342.75 228,-342.75 228,-342.75 50,-342.75 50,-342.75 44,-342.75 38,-336.75 38,-330.75 38,-330.75 38,-113 38,-113 38,-107 44,-101 50,-101"/>
<text xml:space="preserve" text-anchor="middle" x="139" y="-326.4" font-family="Helvetica,sans-Serif" font-size="13.00" fill="#4e342e">Step 9: Update Changelog</text>
</g>
<g id="clust7" class="cluster">
<title>cluster_legend</title>
<path fill="#f5f5f5" stroke="#9e9e9e" d="M559,-3235.75C559,-3235.75 695,-3235.75 695,-3235.75 701,-3235.75 707,-3241.75 707,-3247.75 707,-3247.75 707,-3690.63 707,-3690.63 707,-3696.63 701,-3702.63 695,-3702.63 695,-3702.63 559,-3702.63 559,-3702.63 553,-3702.63 547,-3696.63 547,-3690.63 547,-3690.63 547,-3247.75 547,-3247.75 547,-3241.75 553,-3235.75 559,-3235.75"/>
<text xml:space="preserve" text-anchor="middle" x="627" y="-3687.23" font-family="Helvetica,sans-Serif" font-size="12.00">Legend</text>
</g>
<!-- start -->
<g id="node1" class="node">
<title>start</title>
<ellipse fill="#4caf50" stroke="#388e3c" stroke-width="2" cx="177" cy="-3655.88" rx="80.26" ry="22.63"/>
<text xml:space="preserve" text-anchor="middle" x="177" y="-3657.43" font-family="Helvetica,sans-Serif" font-size="11.00" fill="white">User Requirement</text>
<text xml:space="preserve" text-anchor="middle" x="177" y="-3645.43" font-family="Helvetica,sans-Serif" font-size="11.00" fill="white">(sf &quot;&lt;requirement&gt;&quot;)</text>
</g>
<!-- branch_skip_check -->
<g id="node2" class="node">
<title>branch_skip_check</title>
<polygon fill="#ffe0b2" stroke="#ff9800" stroke-width="2" points="177,-3558.75 47.95,-3540.75 177,-3522.75 306.05,-3540.75 177,-3558.75"/>
<text xml:space="preserve" text-anchor="middle" x="177" y="-3536.3" font-family="Helvetica,sans-Serif" font-size="11.00">&#45;&#45;skip&#45;branch&#45;management?</text>
</g>
<!-- start&#45;&gt;branch_skip_check -->
<g id="edge1" class="edge">
<title>start&#45;&gt;branch_skip_check</title>
<path fill="none" stroke="#666666" d="M177,-3632.3C177,-3632.3 177,-3571.24 177,-3571.24"/>
<polygon fill="#666666" stroke="#666666" points="180.5,-3571.24 177,-3561.24 173.5,-3571.24 180.5,-3571.24"/>
</g>
<!-- adaptive_check -->
<g id="node3" class="node">
<title>adaptive_check</title>
<polygon fill="#ffe0b2" stroke="#ff9800" stroke-width="2" points="210,-3439.5 133.25,-3421.5 210,-3403.5 286.75,-3421.5 210,-3439.5"/>
<text xml:space="preserve" text-anchor="middle" x="210" y="-3417.05" font-family="Helvetica,sans-Serif" font-size="11.00">&#45;&#45;adaptive flag?</text>
</g>
<!-- branch_skip_check&#45;&gt;adaptive_check -->
<g id="edge3" class="edge">
<title>branch_skip_check&#45;&gt;adaptive_check</title>
<path fill="none" stroke="#666666" d="M210,-3526.6C210,-3526.6 210,-3451.85 210,-3451.85"/>
<polygon fill="#666666" stroke="#666666" points="213.5,-3451.85 210,-3441.85 206.5,-3451.85 213.5,-3451.85"/>
<text xml:space="preserve" text-anchor="middle" x="200.5" y="-3477.25" font-family="Helvetica,sans-Serif" font-size="10.00">NO</text>
</g>
<!-- stay_on_branch -->
<g id="node9" class="node">
<title>stay_on_branch</title>
<polygon fill="#c8e6c9" stroke="#4caf50" stroke-width="2" points="305,-2831 175,-2831 175,-2795 305,-2795 305,-2831"/>
<text xml:space="preserve" text-anchor="middle" x="240" y="-2808.55" font-family="Helvetica,sans-Serif" font-size="11.00">Stay on Current Branch</text>
</g>
<!-- branch_skip_check&#45;&gt;stay_on_branch -->
<g id="edge2" class="edge">
<title>branch_skip_check&#45;&gt;stay_on_branch</title>
<path fill="none" stroke="#666666" d="M68.75,-3537.18C68.75,-3482.28 68.75,-2813 68.75,-2813 68.75,-2813 162.77,-2813 162.77,-2813"/>
<polygon fill="#666666" stroke="#666666" points="162.77,-2816.5 172.77,-2813 162.77,-2809.5 162.77,-2816.5"/>
<text xml:space="preserve" text-anchor="middle" x="84.12" y="-3157.75" font-family="Helvetica,sans-Serif" font-size="10.00">YES</text>
</g>
<!-- adaptive_analysis -->
<g id="node4" class="node">
<title>adaptive_analysis</title>
<polygon fill="#ffcc80" stroke="#ef6c00" stroke-width="2" points="437.88,-3320.25 274.12,-3320.25 274.12,-3203.25 437.88,-3203.25 437.88,-3320.25"/>
<text xml:space="preserve" text-anchor="middle" x="356" y="-3305.8" font-family="Helvetica,sans-Serif" font-size="11.00">ADAPTIVE ANALYSIS</text>
<text xml:space="preserve" text-anchor="middle" x="356" y="-3293.8" font-family="Helvetica,sans-Serif" font-size="11.00">(Claude analyzes requirement)</text>
<text xml:space="preserve" text-anchor="middle" x="356" y="-3268.8" font-family="Helvetica,sans-Serif" font-size="11.00">Outputs:</text>
<text xml:space="preserve" text-anchor="middle" x="356" y="-3256.8" font-family="Helvetica,sans-Serif" font-size="11.00">&#45; changeType</text>
<text xml:space="preserve" text-anchor="middle" x="356" y="-3244.8" font-family="Helvetica,sans-Serif" font-size="11.00">&#45; complexity (low/med/high)</text>
<text xml:space="preserve" text-anchor="middle" x="356" y="-3232.8" font-family="Helvetica,sans-Serif" font-size="11.00">&#45; riskLevel (low/med/high)</text>
<text xml:space="preserve" text-anchor="middle" x="356" y="-3220.8" font-family="Helvetica,sans-Serif" font-size="11.00">&#45; affectedAreas</text>
<text xml:space="preserve" text-anchor="middle" x="356" y="-3208.8" font-family="Helvetica,sans-Serif" font-size="11.00">&#45; stepRecommendations</text>
</g>
<!-- adaptive_check&#45;&gt;adaptive_analysis -->
<g id="edge4" class="edge">
<title>adaptive_check&#45;&gt;adaptive_analysis</title>
<path fill="none" stroke="#666666" d="M280.44,-3419.24C280.44,-3419.24 280.44,-3332.73 280.44,-3332.73"/>
<polygon fill="#666666" stroke="#666666" points="283.94,-3332.73 280.44,-3322.73 276.94,-3332.73 283.94,-3332.73"/>
<text xml:space="preserve" text-anchor="middle" x="320.12" y="-3358" font-family="Helvetica,sans-Serif" font-size="10.00">YES</text>
</g>
<!-- on_main_check -->
<g id="node5" class="node">
<title>on_main_check</title>
<polygon fill="#ffe0b2" stroke="#ff9800" stroke-width="2" points="278,-3120 194.23,-3102 278,-3084 361.77,-3102 278,-3120"/>
<text xml:space="preserve" text-anchor="middle" x="278" y="-3097.55" font-family="Helvetica,sans-Serif" font-size="11.00">On main branch?</text>
</g>
<!-- adaptive_check&#45;&gt;on_main_check -->
<g id="edge5" class="edge">
<title>adaptive_check&#45;&gt;on_main_check</title>
<path fill="none" stroke="#666666" d="M234.18,-3408.18C234.18,-3408.18 234.18,-3122.94 234.18,-3122.94"/>
<polygon fill="#666666" stroke="#666666" points="237.68,-3122.94 234.18,-3112.94 230.68,-3122.94 237.68,-3122.94"/>
<text xml:space="preserve" text-anchor="middle" x="208.5" y="-3257.88" font-family="Helvetica,sans-Serif" font-size="10.00">NO</text>
</g>
<!-- adaptive_analysis&#45;&gt;on_main_check -->
<g id="edge6" class="edge">
<title>adaptive_analysis&#45;&gt;on_main_check</title>
<path fill="none" stroke="#666666" d="M317.95,-3202.26C317.95,-3202.26 317.95,-3123.92 317.95,-3123.92"/>
<polygon fill="#666666" stroke="#666666" points="321.45,-3123.92 317.95,-3113.92 314.45,-3123.92 321.45,-3123.92"/>
</g>
<!-- branch_matches -->
<g id="node6" class="node">
<title>branch_matches</title>
<polygon fill="#ffe0b2" stroke="#ff9800" stroke-width="2" points="199,-2989.5 75.75,-2957.5 199,-2925.5 322.25,-2957.5 199,-2989.5"/>
<text xml:space="preserve" text-anchor="middle" x="199" y="-2959.05" font-family="Helvetica,sans-Serif" font-size="11.00">Current branch</text>
<text xml:space="preserve" text-anchor="middle" x="199" y="-2947.05" font-family="Helvetica,sans-Serif" font-size="11.00">matches requirement?</text>
</g>
<!-- on_main_check&#45;&gt;branch_matches -->
<g id="edge7" class="edge">
<title>on_main_check&#45;&gt;branch_matches</title>
<path fill="none" stroke="#666666" d="M258.24,-3087.35C258.24,-3087.35 258.24,-2986.38 258.24,-2986.38"/>
<polygon fill="#666666" stroke="#666666" points="261.74,-2986.38 258.24,-2976.38 254.74,-2986.38 261.74,-2986.38"/>
<text xml:space="preserve" text-anchor="middle" x="267.88" y="-3038.5" font-family="Helvetica,sans-Serif" font-size="10.00">NO</text>
<text xml:space="preserve" text-anchor="middle" x="267.88" y="-3027.25" font-family="Helvetica,sans-Serif" font-size="10.00">(on feature branch)</text>
</g>
<!-- trivial_check -->
<g id="node7" class="node">
<title>trivial_check</title>
<polygon fill="#ffe0b2" stroke="#ff9800" stroke-width="2" points="456,-2975.5 380.53,-2957.5 456,-2939.5 531.47,-2957.5 456,-2975.5"/>
<text xml:space="preserve" text-anchor="middle" x="456" y="-2953.05" font-family="Helvetica,sans-Serif" font-size="11.00">Trivial change?</text>
</g>
<!-- on_main_check&#45;&gt;trivial_check -->
<g id="edge8" class="edge">
<title>on_main_check&#45;&gt;trivial_check</title>
<path fill="none" stroke="#666666" d="M351.89,-3099.12C351.89,-3079.3 351.89,-2964 351.89,-2964 351.89,-2964 392.13,-2964 392.13,-2964"/>
<polygon fill="#666666" stroke="#666666" points="392.13,-2967.5 402.13,-2964 392.13,-2960.5 392.13,-2967.5"/>
<text xml:space="preserve" text-anchor="middle" x="438.12" y="-3032.88" font-family="Helvetica,sans-Serif" font-size="10.00">YES</text>
</g>
<!-- branch_matches&#45;&gt;stay_on_branch -->
<g id="edge9" class="edge">
<title>branch_matches&#45;&gt;stay_on_branch</title>
<path fill="none" stroke="#666666" d="M261.67,-2940.92C261.67,-2940.92 261.67,-2843.17 261.67,-2843.17"/>
<polygon fill="#666666" stroke="#666666" points="265.17,-2843.17 261.67,-2833.17 258.17,-2843.17 265.17,-2843.17"/>
<text xml:space="preserve" text-anchor="middle" x="167.12" y="-2874.38" font-family="Helvetica,sans-Serif" font-size="10.00">YES</text>
</g>
<!-- branch_matches&#45;&gt;stay_on_branch -->
<g id="edge10" class="edge">
<title>branch_matches&#45;&gt;stay_on_branch</title>
<path fill="none" stroke="#666666" d="M218.33,-2929.64C218.33,-2929.64 218.33,-2843.11 218.33,-2843.11"/>
<polygon fill="#666666" stroke="#666666" points="221.83,-2843.11 218.33,-2833.11 214.83,-2843.11 221.83,-2843.11"/>
<text xml:space="preserve" text-anchor="middle" x="274.88" y="-2880" font-family="Helvetica,sans-Serif" font-size="10.00">NO</text>
<text xml:space="preserve" text-anchor="middle" x="274.88" y="-2868.75" font-family="Helvetica,sans-Serif" font-size="10.00">(warn, continue)</text>
</g>
<!-- create_branch -->
<g id="node8" class="node">
<title>create_branch</title>
<polygon fill="#ffe0b2" stroke="#2196f3" stroke-width="2" points="530,-2831 364,-2831 364,-2795 530,-2795 530,-2831"/>
<text xml:space="preserve" text-anchor="middle" x="447" y="-2814.55" font-family="Helvetica,sans-Serif" font-size="11.00">Create New Branch</text>
<text xml:space="preserve" text-anchor="middle" x="447" y="-2802.55" font-family="Helvetica,sans-Serif" font-size="11.00">(feature/fix/refactor/docs/chore)</text>
</g>
<!-- trivial_check&#45;&gt;create_branch -->
<g id="edge12" class="edge">
<title>trivial_check&#45;&gt;create_branch</title>
<path fill="none" stroke="#666666" d="M455.26,-2938.9C455.26,-2938.9 455.26,-2843.5 455.26,-2843.5"/>
<polygon fill="#666666" stroke="#666666" points="458.76,-2843.5 455.26,-2833.5 451.76,-2843.5 458.76,-2843.5"/>
<text xml:space="preserve" text-anchor="middle" x="463.5" y="-2874.38" font-family="Helvetica,sans-Serif" font-size="10.00">NO</text>
</g>
<!-- trivial_check&#45;&gt;stay_on_branch -->
<g id="edge11" class="edge">
<title>trivial_check&#45;&gt;stay_on_branch</title>
<path fill="none" stroke="#666666" d="M399.5,-2952C366.83,-2952 332.13,-2952 332.13,-2952 332.13,-2952 332.13,-2819 332.13,-2819 332.13,-2819 317.49,-2819 317.49,-2819"/>
<polygon fill="#666666" stroke="#666666" points="317.49,-2815.5 307.49,-2819 317.49,-2822.5 317.49,-2815.5"/>
<text xml:space="preserve" text-anchor="middle" x="383.12" y="-2874.38" font-family="Helvetica,sans-Serif" font-size="10.00">YES</text>
</g>
<!-- understand -->
<g id="node10" class="node">
<title>understand</title>
<polygon fill="#e1bee7" stroke="#9c27b0" stroke-width="2" points="367,-2722 171,-2722 171,-2605 367,-2605 367,-2722"/>
<text xml:space="preserve" text-anchor="middle" x="269" y="-2707.55" font-family="Helvetica,sans-Serif" font-size="11.00">Step 2: UNDERSTAND CODEBASE</text>
<text xml:space="preserve" text-anchor="middle" x="269" y="-2695.55" font-family="Helvetica,sans-Serif" font-size="11.00">(Always runs)</text>
<text xml:space="preserve" text-anchor="middle" x="269" y="-2670.55" font-family="Helvetica,sans-Serif" font-size="11.00">Claude analyzes:</text>
<text xml:space="preserve" text-anchor="middle" x="269" y="-2658.55" font-family="Helvetica,sans-Serif" font-size="11.00">&#45; Project type &amp; frameworks</text>
<text xml:space="preserve" text-anchor="middle" x="269" y="-2646.55" font-family="Helvetica,sans-Serif" font-size="11.00">&#45; Directory structure</text>
<text xml:space="preserve" text-anchor="middle" x="269" y="-2634.55" font-family="Helvetica,sans-Serif" font-size="11.00">&#45; Architecture patterns</text>
<text xml:space="preserve" text-anchor="middle" x="269" y="-2622.55" font-family="Helvetica,sans-Serif" font-size="11.00">&#45; Dependency flow</text>
<text xml:space="preserve" text-anchor="middle" x="269" y="-2610.55" font-family="Helvetica,sans-Serif" font-size="11.00">&#45; Impact map for requirement</text>
</g>
<!-- create_branch&#45;&gt;understand -->
<g id="edge13" class="edge">
<title>create_branch&#45;&gt;understand</title>
<path fill="none" stroke="#666666" d="M363,-2807C350.66,-2807 342.01,-2807 342.01,-2807 342.01,-2807 342.01,-2734.21 342.01,-2734.21"/>
<polygon fill="#666666" stroke="#666666" points="345.51,-2734.21 342.01,-2724.21 338.51,-2734.21 345.51,-2734.21"/>
</g>
<!-- stay_on_branch&#45;&gt;understand -->
<g id="edge14" class="edge">
<title>stay_on_branch&#45;&gt;understand</title>
<path fill="none" stroke="#666666" d="M240,-2794.07C240,-2794.07 240,-2734.43 240,-2734.43"/>
<polygon fill="#666666" stroke="#666666" points="243.5,-2734.43 240,-2724.43 236.5,-2734.43 243.5,-2734.43"/>
</g>
<!-- implement -->
<g id="node11" class="node">
<title>implement</title>
<polygon fill="#bbdefb" stroke="#1976d2" stroke-width="2" points="370.75,-2532 167.25,-2532 167.25,-2439 370.75,-2439 370.75,-2532"/>
<text xml:space="preserve" text-anchor="middle" x="269" y="-2517.55" font-family="Helvetica,sans-Serif" font-size="11.00">Step 3: IMPLEMENT REQUIREMENT</text>
<text xml:space="preserve" text-anchor="middle" x="269" y="-2505.55" font-family="Helvetica,sans-Serif" font-size="11.00">(Always runs)</text>
<text xml:space="preserve" text-anchor="middle" x="269" y="-2480.55" font-family="Helvetica,sans-Serif" font-size="11.00">Claude writes code:</text>
<text xml:space="preserve" text-anchor="middle" x="269" y="-2468.55" font-family="Helvetica,sans-Serif" font-size="11.00">&#45; Follow project conventions</text>
<text xml:space="preserve" text-anchor="middle" x="269" y="-2456.55" font-family="Helvetica,sans-Serif" font-size="11.00">&#45; Handle edge cases</text>
<text xml:space="preserve" text-anchor="middle" x="269" y="-2444.55" font-family="Helvetica,sans-Serif" font-size="11.00">&#45; Minimal, focused changes</text>
</g>
<!-- understand&#45;&gt;implement -->
<g id="edge15" class="edge">
<title>understand&#45;&gt;implement</title>
<path fill="none" stroke="#666666" d="M269,-2604.23C269,-2604.23 269,-2544.51 269,-2544.51"/>
<polygon fill="#666666" stroke="#666666" points="272.5,-2544.51 269,-2534.51 265.5,-2544.51 272.5,-2544.51"/>
</g>
<!-- simplify_skip -->
<g id="node12" class="node">
<title>simplify_skip</title>
<polygon fill="#c8e6c9" stroke="#4caf50" stroke-width="2" points="269,-2364.5 180.25,-2332.5 269,-2300.5 357.75,-2332.5 269,-2364.5"/>
<text xml:space="preserve" text-anchor="middle" x="269" y="-2334.05" font-family="Helvetica,sans-Serif" font-size="11.00">skipSimplify?</text>
<text xml:space="preserve" text-anchor="middle" x="269" y="-2322.05" font-family="Helvetica,sans-Serif" font-size="11.00">(from adaptive)</text>
</g>
<!-- implement&#45;&gt;simplify_skip -->
<g id="edge16" class="edge">
<title>implement&#45;&gt;simplify_skip</title>
<path fill="none" stroke="#666666" d="M269,-2438.35C269,-2438.35 269,-2376.71 269,-2376.71"/>
<polygon fill="#666666" stroke="#666666" points="272.5,-2376.71 269,-2366.71 265.5,-2376.71 272.5,-2376.71"/>
</g>
<!-- simplify_run -->
<g id="node13" class="node">
<title>simplify_run</title>
<polygon fill="#a5d6a7" stroke="#2196f3" stroke-width="2" points="308.12,-2217.25 181.88,-2217.25 181.88,-2136.25 308.12,-2136.25 308.12,-2217.25"/>
<text xml:space="preserve" text-anchor="middle" x="245" y="-2202.8" font-family="Helvetica,sans-Serif" font-size="11.00">SIMPLIFY CODE</text>
<text xml:space="preserve" text-anchor="middle" x="245" y="-2177.8" font-family="Helvetica,sans-Serif" font-size="11.00">&#45; Reduce nesting</text>
<text xml:space="preserve" text-anchor="middle" x="245" y="-2165.8" font-family="Helvetica,sans-Serif" font-size="11.00">&#45; Clear naming</text>
<text xml:space="preserve" text-anchor="middle" x="245" y="-2153.8" font-family="Helvetica,sans-Serif" font-size="11.00">&#45; Eliminate redundancy</text>
<text xml:space="preserve" text-anchor="middle" x="245" y="-2141.8" font-family="Helvetica,sans-Serif" font-size="11.00">&#45; Preserve functionality</text>
</g>
<!-- simplify_skip&#45;&gt;simplify_run -->
<g id="edge17" class="edge">
<title>simplify_skip&#45;&gt;simplify_run</title>
<path fill="none" stroke="#666666" d="M245,-2308.16C245,-2308.16 245,-2229.69 245,-2229.69"/>
<polygon fill="#666666" stroke="#666666" points="248.5,-2229.69 245,-2219.69 241.5,-2229.69 248.5,-2229.69"/>
<text xml:space="preserve" text-anchor="middle" x="264.5" y="-2255" font-family="Helvetica,sans-Serif" font-size="10.00">NO</text>
</g>
<!-- review_skip -->
<g id="node14" class="node">
<title>review_skip</title>
<polygon fill="#ffecb3" stroke="#ffc107" stroke-width="2" points="250,-2061.75 161.25,-2029.75 250,-1997.75 338.75,-2029.75 250,-2061.75"/>
<text xml:space="preserve" text-anchor="middle" x="250" y="-2031.3" font-family="Helvetica,sans-Serif" font-size="11.00">skipReview?</text>
<text xml:space="preserve" text-anchor="middle" x="250" y="-2019.3" font-family="Helvetica,sans-Serif" font-size="11.00">(from adaptive)</text>
</g>
<!-- simplify_skip&#45;&gt;review_skip -->
<g id="edge18" class="edge">
<title>simplify_skip&#45;&gt;review_skip</title>
<path fill="none" stroke="#666666" d="M323.44,-2319.1C323.44,-2319.1 323.44,-2047.49 323.44,-2047.49"/>
<polygon fill="#666666" stroke="#666666" points="326.94,-2047.49 323.44,-2037.49 319.94,-2047.49 326.94,-2047.49"/>
<text xml:space="preserve" text-anchor="middle" x="434.12" y="-2172.88" font-family="Helvetica,sans-Serif" font-size="10.00">YES</text>
</g>
<!-- simplify_run&#45;&gt;review_skip -->
<g id="edge19" class="edge">
<title>simplify_run&#45;&gt;review_skip</title>
<path fill="none" stroke="#666666" d="M245,-2135.41C245,-2135.41 245,-2072.51 245,-2072.51"/>
<polygon fill="#666666" stroke="#666666" points="248.5,-2072.51 245,-2062.51 241.5,-2072.51 248.5,-2072.51"/>
</g>
<!-- review_depth -->
<g id="node15" class="node">
<title>review_depth</title>
<polygon fill="#ffe082" stroke="#2196f3" stroke-width="2" points="327.75,-1914.5 172.25,-1914.5 172.25,-1878.5 327.75,-1878.5 327.75,-1914.5"/>
<text xml:space="preserve" text-anchor="middle" x="250" y="-1898.05" font-family="Helvetica,sans-Serif" font-size="11.00">Determine Review Depth</text>
<text xml:space="preserve" text-anchor="middle" x="250" y="-1886.05" font-family="Helvetica,sans-Serif" font-size="11.00">minimal | standard | thorough</text>
</g>
<!-- review_skip&#45;&gt;review_depth -->
<g id="edge20" class="edge">
<title>review_skip&#45;&gt;review_depth</title>
<path fill="none" stroke="#666666" d="M250,-1996.81C250,-1996.81 250,-1927 250,-1927"/>
<polygon fill="#666666" stroke="#666666" points="253.5,-1927 250,-1917 246.5,-1927 253.5,-1927"/>
<text xml:space="preserve" text-anchor="middle" x="257.5" y="-1952.25" font-family="Helvetica,sans-Serif" font-size="10.00">NO</text>
</g>
<!-- solid_skip -->
<g id="node19" class="node">
<title>solid_skip</title>
<polygon fill="#f8bbd9" stroke="#e91e63" stroke-width="2" points="352,-1350 263.25,-1318 352,-1286 440.75,-1318 352,-1350"/>
<text xml:space="preserve" text-anchor="middle" x="352" y="-1319.55" font-family="Helvetica,sans-Serif" font-size="11.00">skipSolid?</text>
<text xml:space="preserve" text-anchor="middle" x="352" y="-1307.55" font-family="Helvetica,sans-Serif" font-size="11.00">(from adaptive)</text>
</g>
<!-- review_skip&#45;&gt;solid_skip -->
<g id="edge21" class="edge">
<title>review_skip&#45;&gt;solid_skip</title>
<path fill="none" stroke="#666666" d="M340.83,-2030C345.65,-2030 348.56,-2030 348.56,-2030 348.56,-2030 348.56,-1361.03 348.56,-1361.03"/>
<polygon fill="#666666" stroke="#666666" points="352.06,-1361.03 348.56,-1351.03 345.06,-1361.03 352.06,-1361.03"/>
<text xml:space="preserve" text-anchor="middle" x="486.12" y="-1667" font-family="Helvetica,sans-Serif" font-size="10.00">YES</text>
</g>
<!-- review_loop -->
<g id="node16" class="node">
<title>review_loop</title>
<polygon fill="#ffca28" stroke="#ff8f00" stroke-width="2" points="312,-1805.5 188,-1805.5 188,-1712.5 312,-1712.5 312,-1805.5"/>
<text xml:space="preserve" text-anchor="middle" x="250" y="-1791.05" font-family="Helvetica,sans-Serif" font-size="11.00">REVIEW ITERATION</text>
<text xml:space="preserve" text-anchor="middle" x="250" y="-1779.05" font-family="Helvetica,sans-Serif" font-size="11.00">(Claude reviews code)</text>
<text xml:space="preserve" text-anchor="middle" x="250" y="-1754.05" font-family="Helvetica,sans-Serif" font-size="11.00">Checks:</text>
<text xml:space="preserve" text-anchor="middle" x="250" y="-1742.05" font-family="Helvetica,sans-Serif" font-size="11.00">&#45; Bugs &amp; security</text>
<text xml:space="preserve" text-anchor="middle" x="250" y="-1730.05" font-family="Helvetica,sans-Serif" font-size="11.00">&#45; Performance</text>
<text xml:space="preserve" text-anchor="middle" x="250" y="-1718.05" font-family="Helvetica,sans-Serif" font-size="11.00">&#45; Maintainability</text>
</g>
<!-- review_depth&#45;&gt;review_loop -->
<g id="edge22" class="edge">
<title>review_depth&#45;&gt;review_loop</title>
<path fill="none" stroke="#666666" d="M250,-1877.67C250,-1877.67 250,-1817.78 250,-1817.78"/>
<polygon fill="#666666" stroke="#666666" points="253.5,-1817.78 250,-1807.78 246.5,-1817.78 253.5,-1817.78"/>
</g>
<!-- issues_found -->
<g id="node17" class="node">
<title>issues_found</title>
<polygon fill="#ffecb3" stroke="#ffc107" stroke-width="2" points="269,-1629.25 198.63,-1611.25 269,-1593.25 339.37,-1611.25 269,-1629.25"/>
<text xml:space="preserve" text-anchor="middle" x="269" y="-1606.8" font-family="Helvetica,sans-Serif" font-size="11.00">Issues found?</text>
</g>
<!-- review_loop&#45;&gt;issues_found -->
<g id="edge23" class="edge">
<title>review_loop&#45;&gt;issues_found</title>
<path fill="none" stroke="#666666" d="M255.31,-1711.84C255.31,-1711.84 255.31,-1638.07 255.31,-1638.07"/>
<polygon fill="#666666" stroke="#666666" points="258.81,-1638.07 255.31,-1628.07 251.81,-1638.07 258.81,-1638.07"/>
</g>
<!-- more_iterations -->
<g id="node18" class="node">
<title>more_iterations</title>
<polygon fill="#ffecb3" stroke="#ffc107" stroke-width="2" points="149,-1498.75 61.75,-1466.75 149,-1434.75 236.25,-1466.75 149,-1498.75"/>
<text xml:space="preserve" text-anchor="middle" x="149" y="-1468.3" font-family="Helvetica,sans-Serif" font-size="11.00">More iterations</text>
<text xml:space="preserve" text-anchor="middle" x="149" y="-1456.3" font-family="Helvetica,sans-Serif" font-size="11.00">remaining?</text>
</g>
<!-- issues_found&#45;&gt;more_iterations -->
<g id="edge24" class="edge">
<title>issues_found&#45;&gt;more_iterations</title>
<path fill="none" stroke="#666666" d="M217.44,-1605.41C217.44,-1605.41 217.44,-1486.05 217.44,-1486.05"/>
<polygon fill="#666666" stroke="#666666" points="220.94,-1486.05 217.44,-1476.05 213.94,-1486.05 220.94,-1486.05"/>
<text xml:space="preserve" text-anchor="middle" x="251" y="-1547.75" font-family="Helvetica,sans-Serif" font-size="10.00">YES</text>
<text xml:space="preserve" text-anchor="middle" x="251" y="-1536.5" font-family="Helvetica,sans-Serif" font-size="10.00">(fix issues)</text>
</g>
<!-- issues_found&#45;&gt;solid_skip -->
<g id="edge25" class="edge">
<title>issues_found&#45;&gt;solid_skip</title>
<path fill="none" stroke="#666666" d="M301.31,-1600.81C301.31,-1600.81 301.31,-1344.12 301.31,-1344.12"/>
<polygon fill="#666666" stroke="#666666" points="304.81,-1344.12 301.31,-1334.12 297.81,-1344.12 304.81,-1344.12"/>
<text xml:space="preserve" text-anchor="middle" x="370" y="-1468.5" font-family="Helvetica,sans-Serif" font-size="10.00">NO</text>
<text xml:space="preserve" text-anchor="middle" x="370" y="-1457.25" font-family="Helvetica,sans-Serif" font-size="10.00">(LGTM!)</text>
</g>
<!-- more_iterations&#45;&gt;review_loop -->
<g id="edge26" class="edge">
<title>more_iterations&#45;&gt;review_loop</title>
<path fill="none" stroke="#666666" d="M193.31,-1483.3C193.31,-1483.3 193.31,-1700.23 193.31,-1700.23"/>
<polygon fill="#666666" stroke="#666666" points="189.81,-1700.23 193.31,-1710.23 196.81,-1700.23 189.81,-1700.23"/>
<text xml:space="preserve" text-anchor="middle" x="130.12" y="-1607.38" font-family="Helvetica,sans-Serif" font-size="10.00">YES</text>
</g>
<!-- more_iterations&#45;&gt;solid_skip -->
<g id="edge27" class="edge">
<title>more_iterations&#45;&gt;solid_skip</title>
<path fill="none" stroke="#666666" d="M226,-1462.14C226,-1437.03 226,-1318 226,-1318 226,-1318 248.92,-1318 248.92,-1318"/>
<polygon fill="#666666" stroke="#666666" points="248.92,-1321.5 258.92,-1318 248.92,-1314.5 248.92,-1321.5"/>
<text xml:space="preserve" text-anchor="middle" x="233.5" y="-1389.25" font-family="Helvetica,sans-Serif" font-size="10.00">NO</text>
</g>
<!-- solid_run -->
<g id="node20" class="node">
<title>solid_run</title>
<polygon fill="#f48fb1" stroke="#2196f3" stroke-width="2" points="429,-1202.75 263,-1202.75 263,-1084.75 429,-1084.75 429,-1202.75"/>
<text xml:space="preserve" text-anchor="middle" x="346" y="-1188.3" font-family="Helvetica,sans-Serif" font-size="11.00">SOLID PRINCIPLES REVIEW</text>
<text xml:space="preserve" text-anchor="middle" x="346" y="-1163.3" font-family="Helvetica,sans-Serif" font-size="11.00">S &#45; Single Responsibility</text>
<text xml:space="preserve" text-anchor="middle" x="346" y="-1151.3" font-family="Helvetica,sans-Serif" font-size="11.00">O &#45; Open/Closed</text>
<text xml:space="preserve" text-anchor="middle" x="346" y="-1139.3" font-family="Helvetica,sans-Serif" font-size="11.00">L &#45; Liskov Substitution</text>
<text xml:space="preserve" text-anchor="middle" x="346" y="-1127.3" font-family="Helvetica,sans-Serif" font-size="11.00">I &#45; Interface Segregation</text>
<text xml:space="preserve" text-anchor="middle" x="346" y="-1115.3" font-family="Helvetica,sans-Serif" font-size="11.00">D &#45; Dependency Inversion</text>
<text xml:space="preserve" text-anchor="middle" x="346" y="-1090.3" font-family="Helvetica,sans-Serif" font-size="11.00">+ Clean Code Standards</text>
</g>
<!-- solid_skip&#45;&gt;solid_run -->
<g id="edge28" class="edge">
<title>solid_skip&#45;&gt;solid_run</title>
<path fill="none" stroke="#666666" d="M346.12,-1287.25C346.12,-1287.25 346.12,-1214.95 346.12,-1214.95"/>
<polygon fill="#666666" stroke="#666666" points="349.63,-1214.95 346.13,-1204.95 342.63,-1214.95 349.63,-1214.95"/>
<text xml:space="preserve" text-anchor="middle" x="356.5" y="-1240.5" font-family="Helvetica,sans-Serif" font-size="10.00">NO</text>
</g>
<!-- test_skip -->
<g id="node21" class="node">
<title>test_skip</title>
<polygon fill="#b2ebf2" stroke="#00bcd4" stroke-width="2" points="348,-1010.25 215.75,-978.25 348,-946.25 480.25,-978.25 348,-1010.25"/>
<text xml:space="preserve" text-anchor="middle" x="348" y="-979.8" font-family="Helvetica,sans-Serif" font-size="11.00">skipTests?</text>
<text xml:space="preserve" text-anchor="middle" x="348" y="-967.8" font-family="Helvetica,sans-Serif" font-size="11.00">(adaptive or &#45;&#45;skip&#45;tests)</text>
</g>
<!-- solid_skip&#45;&gt;test_skip -->
<g id="edge29" class="edge">
<title>solid_skip&#45;&gt;test_skip</title>
<path fill="none" stroke="#666666" d="M434.88,-1315.06C434.88,-1315.06 434.88,-1001.72 434.88,-1001.72"/>
<polygon fill="#666666" stroke="#666666" points="438.38,-1001.72 434.88,-991.72 431.38,-1001.72 438.38,-1001.72"/>
<text xml:space="preserve" text-anchor="middle" x="555.12" y="-1139.88" font-family="Helvetica,sans-Serif" font-size="10.00">YES</text>
</g>
<!-- solid_run&#45;&gt;test_skip -->
<g id="edge30" class="edge">
<title>solid_run&#45;&gt;test_skip</title>
<path fill="none" stroke="#666666" d="M346,-1084C346,-1084 346,-1022.02 346,-1022.02"/>
<polygon fill="#666666" stroke="#666666" points="349.5,-1022.02 346,-1012.02 342.5,-1022.02 349.5,-1022.02"/>
</g>
<!-- test_run -->
<g id="node22" class="node">
<title>test_run</title>
<polygon fill="#80deea" stroke="#2196f3" stroke-width="2" points="332.25,-863 215.75,-863 215.75,-782 332.25,-782 332.25,-863"/>
<text xml:space="preserve" text-anchor="middle" x="274" y="-848.55" font-family="Helvetica,sans-Serif" font-size="11.00">RUN &amp; ADD TESTS</text>
<text xml:space="preserve" text-anchor="middle" x="274" y="-823.55" font-family="Helvetica,sans-Serif" font-size="11.00">&#45; Run existing tests</text>
<text xml:space="preserve" text-anchor="middle" x="274" y="-811.55" font-family="Helvetica,sans-Serif" font-size="11.00">&#45; Fix failures</text>
<text xml:space="preserve" text-anchor="middle" x="274" y="-799.55" font-family="Helvetica,sans-Serif" font-size="11.00">&#45; Add new tests</text>
<text xml:space="preserve" text-anchor="middle" x="274" y="-787.55" font-family="Helvetica,sans-Serif" font-size="11.00">&#45; Verify coverage</text>
</g>
<!-- test_skip&#45;&gt;test_run -->
<g id="edge31" class="edge">
<title>test_skip&#45;&gt;test_run</title>
<path fill="none" stroke="#666666" d="M274,-963.32C274,-963.32 274,-875.36 274,-875.36"/>
<polygon fill="#666666" stroke="#666666" points="277.5,-875.36 274,-865.36 270.5,-875.36 277.5,-875.36"/>
<text xml:space="preserve" text-anchor="middle" x="318.5" y="-900.75" font-family="Helvetica,sans-Serif" font-size="10.00">NO</text>
</g>
<!-- commit -->
<g id="node23" class="node">
<title>commit</title>
<polygon fill="#d1c4e9" stroke="#673ab7" stroke-width="2" points="374,-709 184,-709 184,-616 374,-616 374,-709"/>
<text xml:space="preserve" text-anchor="middle" x="279" y="-694.55" font-family="Helvetica,sans-Serif" font-size="11.00">Step 8: COMMIT CHANGES</text>
<text xml:space="preserve" text-anchor="middle" x="279" y="-682.55" font-family="Helvetica,sans-Serif" font-size="11.00">(Always runs)</text>
<text xml:space="preserve" text-anchor="middle" x="279" y="-657.55" font-family="Helvetica,sans-Serif" font-size="11.00">Commit Message (10&#45;point scoring):</text>
<text xml:space="preserve" text-anchor="middle" x="279" y="-645.55" font-family="Helvetica,sans-Serif" font-size="11.00">&#45; Subject: type(scope): desc</text>
<text xml:space="preserve" text-anchor="middle" x="279" y="-633.55" font-family="Helvetica,sans-Serif" font-size="11.00">&#45; Body: WHY + WHAT</text>
<text xml:space="preserve" text-anchor="middle" x="279" y="-621.55" font-family="Helvetica,sans-Serif" font-size="11.00">&#45; Proper formatting</text>
</g>
<!-- test_skip&#45;&gt;commit -->
<g id="edge32" class="edge">
<title>test_skip&#45;&gt;commit</title>
<path fill="none" stroke="#666666" d="M353.12,-946.53C353.12,-946.53 353.12,-721.27 353.12,-721.27"/>
<polygon fill="#666666" stroke="#666666" points="356.63,-721.27 353.13,-711.27 349.63,-721.27 356.63,-721.27"/>
<text xml:space="preserve" text-anchor="middle" x="458.12" y="-818.62" font-family="Helvetica,sans-Serif" font-size="10.00">YES</text>
</g>
<!-- test_run&#45;&gt;commit -->
<g id="edge33" class="edge">
<title>test_run&#45;&gt;commit</title>
<path fill="none" stroke="#666666" d="M274,-781.3C274,-781.3 274,-721.31 274,-721.31"/>
<polygon fill="#666666" stroke="#666666" points="277.5,-721.31 274,-711.31 270.5,-721.31 277.5,-721.31"/>
</g>
<!-- push_check -->
<g id="node24" class="node">
<title>push_check</title>
<polygon fill="#ede7f6" stroke="#673ab7" stroke-width="2" points="279,-543 215.01,-525 279,-507 342.99,-525 279,-543"/>
<text xml:space="preserve" text-anchor="middle" x="279" y="-520.55" font-family="Helvetica,sans-Serif" font-size="11.00">&#45;&#45;skip&#45;push?</text>
</g>
<!-- commit&#45;&gt;push_check -->
<g id="edge34" class="edge">
<title>commit&#45;&gt;push_check</title>
<path fill="none" stroke="#666666" d="M279,-615.18C279,-615.18 279,-555.25 279,-555.25"/>
<polygon fill="#666666" stroke="#666666" points="282.5,-555.25 279,-545.25 275.5,-555.25 282.5,-555.25"/>
</g>
<!-- git_push -->
<g id="node25" class="node">
<title>git_push</title>
<polygon fill="#b39ddb" stroke="#2196f3" stroke-width="2" points="165,-423.75 111,-423.75 111,-387.75 165,-387.75 165,-423.75"/>
<text xml:space="preserve" text-anchor="middle" x="138" y="-401.3" font-family="Helvetica,sans-Serif" font-size="11.00">git push</text>
</g>
<!-- push_check&#45;&gt;git_push -->
<g id="edge35" class="edge">
<title>push_check&#45;&gt;git_push</title>
<path fill="none" stroke="#666666" d="M220.75,-522.51C220.75,-505.43 220.75,-406 220.75,-406 220.75,-406 177.07,-406 177.07,-406"/>
<polygon fill="#666666" stroke="#666666" points="177.07,-402.5 167.07,-406 177.07,-409.5 177.07,-402.5"/>
<text xml:space="preserve" text-anchor="middle" x="192.5" y="-461.5" font-family="Helvetica,sans-Serif" font-size="10.00">NO</text>
</g>
<!-- changelog_skip -->
<g id="node26" class="node">
<title>changelog_skip</title>
<polygon fill="#d7ccc8" stroke="#795548" stroke-width="2" points="139,-313.25 45.75,-281.25 139,-249.25 232.25,-281.25 139,-313.25"/>
<text xml:space="preserve" text-anchor="middle" x="139" y="-282.8" font-family="Helvetica,sans-Serif" font-size="11.00">skipChangelog?</text>
<text xml:space="preserve" text-anchor="middle" x="139" y="-270.8" font-family="Helvetica,sans-Serif" font-size="11.00">(from adaptive)</text>
</g>
<!-- push_check&#45;&gt;changelog_skip -->
<g id="edge36" class="edge">
<title>push_check&#45;&gt;changelog_skip</title>
<path fill="none" stroke="#666666" d="M226.5,-520.77C226.5,-520.77 226.5,-295.7 226.5,-295.7"/>
<polygon fill="#666666" stroke="#666666" points="230,-295.7 226.5,-285.7 223,-295.7 230,-295.7"/>
<text xml:space="preserve" text-anchor="middle" x="291.12" y="-401.88" font-family="Helvetica,sans-Serif" font-size="10.00">YES</text>
</g>
<!-- git_push&#45;&gt;changelog_skip -->
<g id="edge37" class="edge">
<title>git_push&#45;&gt;changelog_skip</title>
<path fill="none" stroke="#666666" d="M138,-386.84C138,-386.84 138,-325.44 138,-325.44"/>
<polygon fill="#666666" stroke="#666666" points="141.5,-325.44 138,-315.44 134.5,-325.44 141.5,-325.44"/>
</g>
<!-- changelog_run -->
<g id="node27" class="node">
<title>changelog_run</title>
<polygon fill="#bcaaa4" stroke="#2196f3" stroke-width="2" points="205.88,-166 54.12,-166 54.12,-109 205.88,-109 205.88,-166"/>
<text xml:space="preserve" text-anchor="middle" x="130" y="-151.55" font-family="Helvetica,sans-Serif" font-size="11.00">UPDATE CHANGELOG.md</text>
<text xml:space="preserve" text-anchor="middle" x="130" y="-126.55" font-family="Helvetica,sans-Serif" font-size="11.00">[Unreleased]</text>
<text xml:space="preserve" text-anchor="middle" x="130" y="-114.55" font-family="Helvetica,sans-Serif" font-size="11.00">&#45; Added / Changed / Fixed</text>
</g>
<!-- changelog_skip&#45;&gt;changelog_run -->
<g id="edge38" class="edge">
<title>changelog_skip&#45;&gt;changelog_run</title>
<path fill="none" stroke="#666666" d="M130,-251.46C130,-251.46 130,-178.27 130,-178.27"/>
<polygon fill="#666666" stroke="#666666" points="133.5,-178.27 130,-168.27 126.5,-178.27 133.5,-178.27"/>
<text xml:space="preserve" text-anchor="middle" x="141.5" y="-203.75" font-family="Helvetica,sans-Serif" font-size="10.00">NO</text>
</g>
<!-- complete -->
<g id="node28" class="node">
<title>complete</title>
<ellipse fill="#4caf50" stroke="#388e3c" stroke-width="2" cx="226" cy="-18" rx="62.39" ry="18"/>
<text xml:space="preserve" text-anchor="middle" x="226" y="-13.55" font-family="Helvetica,sans-Serif" font-size="11.00" fill="white">Pipeline Complete</text>
</g>
<!-- changelog_skip&#45;&gt;complete -->
<g id="edge39" class="edge">
<title>changelog_skip&#45;&gt;complete</title>
<path fill="none" stroke="#666666" d="M219.06,-275.75C219.06,-275.75 219.06,-48.1 219.06,-48.1"/>
<polygon fill="#666666" stroke="#666666" points="222.56,-48.1 219.06,-38.1 215.56,-48.1 222.56,-48.1"/>
<text xml:space="preserve" text-anchor="middle" x="332.12" y="-133.62" font-family="Helvetica,sans-Serif" font-size="10.00">YES</text>
</g>
<!-- changelog_run&#45;&gt;complete -->
<g id="edge40" class="edge">
<title>changelog_run&#45;&gt;complete</title>
<path fill="none" stroke="#666666" d="M184.74,-108.27C184.74,-108.27 184.74,-43.64 184.74,-43.64"/>
<polygon fill="#666666" stroke="#666666" points="188.24,-43.64 184.74,-33.64 181.24,-43.64 188.24,-43.64"/>
</g>
<!-- legend_required -->
<g id="node29" class="node">
<title>legend_required</title>
<polygon fill="#bbdefb" stroke="#1976d2" stroke-width="2" points="669.88,-3673.88 584.12,-3673.88 584.12,-3637.88 669.88,-3637.88 669.88,-3673.88"/>
<text xml:space="preserve" text-anchor="middle" x="627" y="-3651.43" font-family="Helvetica,sans-Serif" font-size="11.00">Required Step</text>
</g>
<!-- legend_skippable -->
<g id="node30" class="node">
<title>legend_skippable</title>
<polygon fill="#c8e6c9" stroke="#4caf50" stroke-width="2" points="671.38,-3558.75 582.62,-3558.75 582.62,-3522.75 671.38,-3522.75 671.38,-3558.75"/>
<text xml:space="preserve" text-anchor="middle" x="627" y="-3542.3" font-family="Helvetica,sans-Serif" font-size="11.00">Skippable Step</text>
<text xml:space="preserve" text-anchor="middle" x="627" y="-3530.3" font-family="Helvetica,sans-Serif" font-size="11.00">(via adaptive)</text>
</g>
<!-- legend_required&#45;&gt;legend_skippable -->
<!-- legend_decision -->
<g id="node31" class="node">
<title>legend_decision</title>
<polygon fill="#ffe082" stroke="#ffc107" stroke-width="2" points="627,-3439.5 554.71,-3421.5 627,-3403.5 699.29,-3421.5 627,-3439.5"/>
<text xml:space="preserve" text-anchor="middle" x="627" y="-3417.05" font-family="Helvetica,sans-Serif" font-size="11.00">Decision Point</text>
</g>
<!-- legend_skippable&#45;&gt;legend_decision -->
<!-- legend_claude -->
<g id="node32" class="node">
<title>legend_claude</title>
<polygon fill="#ffcc80" stroke="#ef6c00" stroke-width="2" points="673.25,-3279.75 580.75,-3279.75 580.75,-3243.75 673.25,-3243.75 673.25,-3279.75"/>
<text xml:space="preserve" text-anchor="middle" x="627" y="-3263.3" font-family="Helvetica,sans-Serif" font-size="11.00">Claude Analysis</text>
<text xml:space="preserve" text-anchor="middle" x="627" y="-3251.3" font-family="Helvetica,sans-Serif" font-size="11.00">(AI&#45;powered)</text>
</g>
<!-- legend_decision&#45;&gt;legend_claude -->
</g>
</svg>
